<svg xmlns="http://www.w3.org/2000/svg" width="16.364" height="12"><path d="M15.652 6.694a3.226 3.226 0 00-1.82-1.155A2.178 2.178 0 0012 2.182a2.083 2.083 0 00-1.415.528A4.368 4.368 0 006.545 0 4.2 4.2 0 003.46 1.279a4.2 4.2 0 00-1.278 3.085q0 .111.017.366A3.811 3.811 0 000 8.182a3.677 3.677 0 001.121 2.7 3.676 3.676 0 002.7 1.121h9.273a3.269 3.269 0 002.561-5.306zm-4.828.328l-2.992 2.992a.289.289 0 01-.392 0l-3-3a.265.265 0 01-.077-.2.276.276 0 01.273-.273h1.909v-3a.276.276 0 01.273-.273h1.637a.276.276 0 01.273.273v3h1.909a.262.262 0 01.272.273.319.319 0 01-.085.209z" fill="#ccc"/></svg>