<svg xmlns="http://www.w3.org/2000/svg" width="84.969" height="84.924"><g fill="#222121" stroke-miterlimit="10"><path d="M52.2604 80.9231H4.0464V55.536H4V32.7089c0-15.8302 12.8788-28.709 28.709-28.709H52.2603c15.8301 0 28.7089 12.8788 28.7089 28.709v19.5054c0 15.8301-12.8788 28.7088-28.709 28.7088z"/><path d="M32.709 8C19.0846 8 8 19.0845 8 32.7088V51.5359h.0464V76.923h44.214c13.6245 0 24.7089-11.0843 24.7089-24.7088V32.7089c0-13.6243-11.0844-24.709-24.709-24.709H32.709m0-8H52.2603C70.296 0 84.9693 14.6731 84.9693 32.709v18.827c0 18.714-14.6732 33.3872-32.709 33.3872H.0465V59.536l-.0464-8V32.7089C0 14.673 14.6732-.0001 32.709-.0001z" fill="#fff"/></g><path d="M44.286 21.536h8.128a11.394 11.394 0 0111.379 11.381v10.649h5.15V32.917a16.531 16.531 0 00-16.531-16.531h-8.128z" stroke="transparent" fill="#f2cb00"/><path d="M21.528 43.567v-10.65a11.394 11.394 0 0111.381-11.381h8.128v-5.15h-8.128a16.531 16.531 0 00-16.531 16.531v10.649z" fill="#68d200" stroke="transparent"/><path d="M63.793 46.816v5.607a11.394 11.394 0 01-11.381 11.381h-8.128v5.15h8.128a16.531 16.531 0 0016.531-16.531v-5.607z" fill="#e6494f" stroke="transparent"/><path d="M41.037 63.804H21.528V46.816h-5.15v22.138h24.659z" fill="#4fc4f4" stroke="transparent"/><path d="M42.588 47.76l7.588 5.332V31.681H35v21.411z" fill="#fff"/></svg>